<svg xmlns="http://www.w3.org/2000/svg" viewBox="0 0 1200 600">
  <rect width="1200" height="600" rx="28" fill="#0b1220"/>
  <g fill="#1d2a44" stroke="#314569" stroke-width="1.5">
    <path d="M110 250l70-80 120 10 60-50 80 10 80 60-20 70-90 20-30 60-100 10-70-35-80 25z"/>
    <path d="M610 180l95-35 150 30 80 70-15 80-100 15-45 40-110-10-40-55-70-20-15-55z"/>
    <path d="M840 390l90-15 60 40 40 85-80 30-115-20-20-60z"/>
  </g>
  <g fill="#75d0ff">
    <circle cx="280" cy="250" r="10"/><circle cx="410" cy="210" r="9"/><circle cx="700" cy="220" r="12"/>
    <circle cx="875" cy="270" r="8"/><circle cx="925" cy="430" r="11"/>
  </g>
  <g stroke="#75d0ff" stroke-opacity=".55" fill="none">
    <path d="M280 250 C 430 150, 560 140, 700 220"/>
    <path d="M700 220 C 810 220, 850 220, 875 270"/>
    <path d="M875 270 C 915 320, 930 360, 925 430"/>
    <path d="M410 210 C 330 215, 300 225, 280 250"/>
  </g>
  <text x="50%" y="90" text-anchor="middle" fill="#ffffff" font-size="34" font-family="Inter, Arial, sans-serif" font-weight="700">Visitor Map Placeholder</text>
  <text x="50%" y="130" text-anchor="middle" fill="#b8c8e8" font-size="18" font-family="Inter, Arial, sans-serif">Replace this with your ClustrMaps or Cloudflare-powered widget after deployment.</text>
</svg>